<?xml version="1.0" standalone="no"?><!DOCTYPE svg PUBLIC "-//W3C//DTD SVG 1.1//EN" "http://www.w3.org/Graphics/SVG/1.1/DTD/svg11.dtd"><svg t="1643389128820" class="icon" viewBox="0 0 1025 1024" version="1.1" xmlns="http://www.w3.org/2000/svg" p-id="3699" id="mx_n_1643389128821" xmlns:xlink="http://www.w3.org/1999/xlink" width="200.1953125" height="200"><defs><style type="text/css"></style></defs><path d="M509.278 954.055c-88.555 0-178.188-44.624-178.188-129.851 0-84.953 93.268-178.192 178.188-178.192 84.894 0 178.135 93.24 178.135 178.192 0.002 85.224-89.607 129.85-178.135 129.85z m0-264.087c-60.209 0-134.203 74.022-134.203 134.236 0 55.773 69.14 85.864 134.203 85.864 65.04 0 134.15-30.091 134.15-85.864 0-60.214-73.965-134.236-134.15-134.236z" p-id="3700"></path><path d="M314.975 743.854l-5.633-4.88c-67.587-58.767-106.36-143.522-106.36-232.52 0-170.205 138.477-308.71 308.652-308.71 170.205 0 308.683 138.505 308.683 308.71 0 88.774-38.633 173.363-105.942 232.104l-5.606 4.883-24.155-27.652 5.606-4.91c59.35-51.749 93.377-126.272 93.377-204.425 0-149.962-122.001-271.989-271.96-271.989-149.957 0-271.933 122.027-271.933 271.989 0 78.402 34.169 153.034 93.742 204.815l5.63 4.882-24.101 27.703z" p-id="3701"></path><path d="M509.278 954.055c-88.555 0-178.188-44.624-178.188-129.851 0-84.953 93.268-178.192 178.188-178.192 84.894 0 178.135 93.24 178.135 178.192 0.002 85.224-89.607 129.85-178.135 129.85z m0-264.087c-60.209 0-134.203 74.022-134.203 134.236 0 55.773 69.14 85.864 134.203 85.864 65.04 0 134.15-30.091 134.15-85.864 0-60.214-73.965-134.236-134.15-134.236zM482.016 643.485l-4.852-1.329c-53.943-14.45-91.634-63.568-91.634-119.397 0-68.255 55.497-123.778 123.75-123.778 68.228 0 123.721 55.523 123.721 123.778 0 54.554-36.58 103.363-88.942 118.73l-4.855 1.416-4.99-0.833c-8.878-1.495-15.922-2.19-22.158-2.19-7.49 0-15.673 0.888-25.075 2.662l-4.965 0.941z m27.262-200.543c-43.984 0-79.763 35.804-79.763 79.818 0 34.085 22.383 64.927 54.666 75.605 19.636-3.246 32.474-3.33 51.918-0.53 31.254-11.232 52.943-41.824 52.943-75.075 0-44.012-35.777-79.818-79.764-79.818z" p-id="3702"></path><path d="M739.195 918.359l-18.664-39.823 6.74-3.164c109.47-51.361 180.215-162.3 180.215-282.694V426.137c0-172.146-140.082-312.23-312.228-312.23h-166.52c-172.144 0-312.2 140.084-312.2 312.23v166.54c0 120.229 70.722 231.112 180.185 282.473l6.744 3.188-18.666 39.826-6.767-3.19c-124.806-58.57-205.48-185.097-205.48-322.296V426.137c0-196.413 159.773-356.19 356.185-356.19h166.519c196.414 0 356.19 159.777 356.19 356.19v166.54c0 137.366-80.654 263.947-205.484 322.522l-6.77 3.16z" p-id="3703"></path></svg>